<?xml version="1.0" encoding="UTF-8" standalone="no"?>
<svg
   xmlns:dc="http://purl.org/dc/elements/1.1/"
   xmlns:cc="http://creativecommons.org/ns#"
   xmlns:rdf="http://www.w3.org/1999/02/22-rdf-syntax-ns#"
   xmlns:svg="http://www.w3.org/2000/svg"
   xmlns="http://www.w3.org/2000/svg"
   xmlns:sodipodi="http://sodipodi.sourceforge.net/DTD/sodipodi-0.dtd"
   xmlns:inkscape="http://www.inkscape.org/namespaces/inkscape"
   inkscape:version="1.0 (4035a4f, 2020-05-01)"
   sodipodi:docname="perfecttestwhit.svg"
   id="svg4725"
   version="1.1"
   viewBox="0 0 841.0001 381.00001"
   height="15in"
   width="33.110241in">
  <defs
     id="defs4719" />
  <sodipodi:namedview
     units="in"
     inkscape:window-maximized="0"
     inkscape:window-y="25"
     inkscape:window-x="0"
     inkscape:window-height="996"
     inkscape:window-width="1252"
     showgrid="false"
     inkscape:document-rotation="0"
     inkscape:current-layer="layer1"
     inkscape:document-units="mm"
     inkscape:cy="1928.8373"
     inkscape:cx="1908.5957"
     inkscape:zoom="0.20599781"
     inkscape:pageshadow="2"
     inkscape:pageopacity="0.0"
     borderopacity="1.0"
     bordercolor="#666666"
     pagecolor="#ffffff"
     id="base" />
  <metadata
     id="metadata4722">
    <rdf:RDF>
      <cc:Work
         rdf:about="">
        <dc:format>image/svg+xml</dc:format>
        <dc:type
           rdf:resource="http://purl.org/dc/dcmitype/StillImage" />
        <dc:title></dc:title>
      </cc:Work>
    </rdf:RDF>
  </metadata>
  <g
     id="layer1"
     inkscape:groupmode="layer"
     inkscape:label="Layer 1">
    <g
       transform="translate(304.83925,209.39881)"
       id="g5331">
      <g
         transform="translate(4763.0586,-2211.6553)"
         style="font-size:173.92px;line-height:1.25;font-family:sans-serif;-inkscape-font-specification:sans-serif;stroke-width:4.34801"
         id="text4664"
         aria-label="PERFECT">
        <path
           id="path4666"
           style="font-style:normal;font-variant:normal;font-weight:600;font-stretch:normal;font-family:Metropolis;-inkscape-font-specification:'Metropolis Semi-Bold';fill:#ffffff;fill-opacity:1;stroke-width:4.34801"
           d="m -5044.3499,2253.283 h 21.74 v -40.1756 h 30.2621 c 25.5662,0 44.6974,-16.3484 44.6974,-39.6537 0,-23.3053 -19.1312,-39.6538 -44.6974,-39.6538 h -52.0021 z m 21.74,-60.1764 v -39.3059 h 27.8272 c 14.7832,0 25.0445,7.4786 25.0445,19.653 0,12.1744 -10.2613,19.6529 -25.0445,19.6529 z" />
        <path
           id="path4670"
           style="font-style:normal;font-variant:normal;font-weight:600;font-stretch:normal;font-family:Metropolis;-inkscape-font-specification:'Metropolis Semi-Bold';fill:#ffffff;fill-opacity:1;stroke-width:4.34801"
           d="m -4840.638,2153.6268 v -19.8269 h -89.9166 v 119.4831 h 89.9166 v -19.8269 h -68.1766 v -31.1317 h 61.7416 v -19.8269 h -61.7416 v -28.8707 z" />
        <path
           id="path4672"
           style="font-style:normal;font-variant:normal;font-weight:600;font-stretch:normal;font-family:Metropolis;-inkscape-font-specification:'Metropolis Semi-Bold';fill:#ffffff;fill-opacity:1;stroke-width:4.34801"
           d="m -4722.0735,2253.283 -29.9142,-42.4365 c 17.2181,-5.3915 28.8707,-19.3051 28.8707,-37.3928 0,-23.3053 -19.1312,-39.6538 -44.6974,-39.6538 h -52.0021 v 119.4831 h 21.74 v -40.1756 h 23.1314 l 28.175,40.1756 z m -76.003,-99.4823 h 27.8272 c 14.7832,0 25.0445,7.4786 25.0445,19.653 0,12.1744 -10.2613,19.6529 -25.0445,19.6529 h -27.8272 z" />
        <path
           id="path4674"
           style="font-style:normal;font-variant:normal;font-weight:600;font-stretch:normal;font-family:Metropolis;-inkscape-font-specification:'Metropolis Semi-Bold';fill:#ffffff;fill-opacity:1;stroke-width:4.34801"
           d="m -4613.387,2153.6268 v -19.8269 h -89.9167 v 119.4831 h 21.74 v -49.5672 h 61.7416 v -19.8269 h -61.7416 v -30.2621 z" />
        <path
           id="path4676"
           style="font-style:normal;font-variant:normal;font-weight:600;font-stretch:normal;font-family:Metropolis;-inkscape-font-specification:'Metropolis Semi-Bold';fill:#ffffff;fill-opacity:1;stroke-width:4.34801"
           d="m -4504.3473,2153.6268 v -19.8269 h -89.9167 v 119.4831 h 89.9167 v -19.8269 h -68.1767 v -31.1317 h 61.7416 v -19.8269 h -61.7416 v -28.8707 z" />
        <path
           id="path4678"
           style="font-style:normal;font-variant:normal;font-weight:600;font-stretch:normal;font-family:Metropolis;-inkscape-font-specification:'Metropolis Semi-Bold';fill:#ffffff;fill-opacity:1;stroke-width:4.34801"
           d="m -4425.2627,2255.37 c 17.5659,0 33.5666,-7.4786 45.0453,-19.479 l -15.305,-14.2615 c -7.4785,8.5221 -18.0876,13.9136 -29.7403,13.9136 -22.0878,0 -40.6973,-19.1312 -40.6973,-42.0886 0,-22.7835 18.6095,-41.9147 40.6973,-41.9147 11.4787,0 22.2618,5.3915 29.5664,13.9136 l 15.4789,-14.4354 c -11.4787,-11.8266 -27.4794,-19.3051 -45.0453,-19.3051 -34.0883,0 -62.7851,28.175 -62.7851,61.7416 0,33.5665 28.6968,61.9155 62.7851,61.9155 z" />
        <path
           sodipodi:nodetypes="ccccccccc"
           id="path4680"
           style="font-style:normal;font-variant:normal;font-weight:600;font-stretch:normal;font-family:Metropolis;-inkscape-font-specification:'Metropolis Semi-Bold';fill:#ffffff;fill-opacity:1;stroke-width:4.34801"
           d="m -4310.2743,2253.283 h 21.5661 v -99.6562 h 38.2624 v -19.8269 h -98.0909 v 19.8269 h 38.2624 z" />
        <path
           sodipodi:nodetypes="ssscccs"
           d="m -4425.2627,2235.5431 c -22.0878,0 -40.6973,-19.1312 -40.6973,-42.0886 0,-22.7835 18.6095,-41.9147 40.6973,-41.9147 11.4787,0 22.2618,5.3915 29.5665,13.9136 0,0 14.4593,8.7519 14.5462,28.088 0.087,19.3362 -14.3724,28.0881 -14.3724,28.0881 -7.4785,8.5221 -18.0876,13.9136 -29.7403,13.9136 z"
           style="font-style:normal;font-variant:normal;font-weight:600;font-stretch:normal;font-family:Metropolis;-inkscape-font-specification:'Metropolis Semi-Bold';fill:none;stroke:#398af0;stroke-width:5;stroke-miterlimit:4;stroke-dasharray:none;stroke-opacity:1"
           id="path4688" />
      </g>
      <text
         id="text4692"
         y="138.70291"
         x="-0.95323992"
         style="font-size:97.4598px;line-height:1.25;font-family:sans-serif;-inkscape-font-specification:sans-serif;fill:#ffffff;fill-opacity:1;stroke-width:2.4365"
         xml:space="preserve"><tspan
           style="font-style:normal;font-variant:normal;font-weight:bold;font-stretch:normal;font-family:sans-serif;-inkscape-font-specification:'sans-serif Bold';fill:#ffffff;fill-opacity:1;stroke-width:2.4365"
           y="138.70291"
           x="-0.95323992"
           id="tspan4690"
           sodipodi:role="line">Test</tspan></text>
      <text
         xml:space="preserve"
         style="font-size:97.4598px;line-height:1.25;font-family:sans-serif;-inkscape-font-specification:sans-serif;fill:#ffffff;fill-opacity:1;stroke-width:2.4365"
         x="-283.24231"
         y="-103.92915"
         id="text4696"><tspan
           sodipodi:role="line"
           id="tspan4694"
           x="-283.24231"
           y="-103.92915"
           style="font-style:normal;font-variant:normal;font-weight:bold;font-stretch:normal;font-family:sans-serif;-inkscape-font-specification:'sans-serif Bold';fill:#ffffff;fill-opacity:1;stroke-width:2.4365">The</tspan></text>
    </g>
  </g>
</svg>
